<?xml version="1.0" standalone="no"?>
<!DOCTYPE svg PUBLIC "-//W3C//DTD SVG 20010904//EN"
 "http://www.w3.org/TR/2001/REC-SVG-20010904/DTD/svg10.dtd">
<svg version="1.0" xmlns="http://www.w3.org/2000/svg"
 width="1600.000000pt" height="1600.000000pt" viewBox="0 0 1600.000000 1600.000000"
 preserveAspectRatio="xMidYMid meet">

<g transform="translate(0.000000,1600.000000) scale(0.100000,-0.100000)"
fill="#000000" stroke="none">
<path d="M6955 12066 c-16 -7 -39 -22 -51 -32 -86 -77 -106 -98 -109 -116 -3
-11 -7 -23 -11 -27 -4 -3 -4 3 0 14 6 17 4 17 -18 -4 -15 -14 -26 -31 -26 -38
0 -8 -4 -11 -10 -8 -5 3 -10 1 -10 -4 0 -6 -11 -21 -25 -33 -14 -12 -23 -28
-20 -36 2 -7 1 -11 -4 -7 -15 8 -52 -51 -45 -72 4 -13 3 -14 -3 -5 -7 10 -20
0 -50 -40 -83 -111 -133 -190 -127 -201 4 -7 4 -9 -1 -5 -11 11 -148 -199
-139 -213 4 -7 3 -9 -3 -6 -6 4 -32 -30 -58 -76 -27 -45 -55 -91 -64 -101 -12
-15 -13 -17 -2 -11 8 5 1 -9 -16 -31 -17 -21 -43 -64 -59 -94 -16 -30 -32 -57
-35 -60 -3 -3 -30 -50 -60 -105 -30 -54 -61 -111 -69 -126 -52 -93 -69 -132
-63 -141 3 -6 2 -8 -4 -5 -5 3 -32 -38 -60 -91 -80 -154 -88 -167 -95 -170 -5
-2 -8 -9 -8 -14 0 -10 -46 -90 -109 -188 -8 -14 -14 -28 -13 -32 1 -5 -2 -8
-6 -8 -4 0 -16 -15 -27 -32 -10 -18 -30 -49 -45 -68 -103 -138 -134 -176 -208
-265 -131 -156 -223 -254 -404 -433 -119 -118 -164 -169 -155 -175 8 -6 7 -7
-5 -3 -20 6 -201 -161 -191 -177 3 -6 1 -7 -5 -3 -6 3 -24 -6 -40 -21 -16 -16
-50 -46 -75 -67 -25 -22 -43 -44 -40 -49 3 -6 1 -7 -5 -3 -6 4 -53 -28 -106
-71 -89 -73 -157 -125 -194 -148 -152 -93 -278 -155 -314 -155 -10 0 -17 -3
-15 -7 3 -5 -35 -9 -83 -11 -85 -3 -89 -3 -120 25 -74 66 -80 295 -15 638 27
140 71 275 148 455 71 165 264 561 316 649 55 91 105 186 103 194 -1 4 2 7 6
7 8 0 35 46 36 62 1 4 7 13 14 19 6 7 12 18 12 25 0 7 4 14 8 16 15 6 52 80
46 90 -4 6 -2 8 4 5 5 -4 22 14 37 40 29 49 83 136 205 326 39 59 70 110 70
112 0 2 20 34 45 72 25 37 43 74 40 80 -2 7 0 12 6 10 9 -2 35 37 106 159 58
99 163 329 178 388 18 75 14 146 -10 170 -8 7 -11 16 -8 19 9 10 -22 68 -59
110 -25 29 -44 39 -78 45 -52 9 -151 -2 -183 -20 -12 -7 -24 -13 -27 -13 -25
-4 -49 -18 -45 -26 3 -5 -2 -6 -11 -2 -13 5 -15 3 -9 -7 5 -9 4 -11 -3 -6 -15
9 -94 -45 -117 -81 -19 -28 -39 -52 -128 -149 -27 -29 -46 -58 -42 -64 3 -6 1
-9 -7 -8 -7 2 -12 -3 -10 -10 1 -6 -2 -11 -7 -10 -5 2 -41 -35 -80 -82 -39
-47 -76 -92 -84 -100 -7 -9 -26 -34 -42 -55 -17 -22 -36 -46 -43 -54 -24 -25
-92 -120 -92 -128 0 -5 -9 -14 -21 -21 -12 -8 -18 -19 -15 -28 3 -8 2 -13 -2
-10 -5 3 -14 -3 -20 -12 -6 -9 -34 -49 -62 -89 -27 -40 -50 -77 -50 -82 0 -5
-4 -11 -9 -13 -12 -4 -84 -120 -84 -135 0 -7 -3 -13 -7 -13 -12 0 -60 -82 -53
-92 3 -6 2 -8 -4 -5 -6 4 -19 -10 -29 -31 -10 -20 -33 -59 -50 -87 -68 -111
-115 -205 -108 -216 4 -7 3 -9 -2 -6 -5 3 -24 -22 -41 -56 -51 -99 -143 -297
-137 -297 2 0 -3 -11 -12 -25 -9 -14 -14 -32 -10 -40 3 -9 2 -14 -2 -11 -9 5
-16 -11 -72 -157 -22 -60 -38 -112 -35 -118 4 -5 2 -9 -2 -9 -5 0 -22 -42 -37
-92 -16 -51 -35 -115 -43 -141 -8 -27 -16 -66 -17 -87 0 -21 -4 -36 -7 -34 -6
3 -11 -18 -46 -206 -24 -130 -24 -468 0 -555 9 -33 19 -77 22 -98 3 -21 9 -36
13 -33 4 2 7 -9 8 -24 3 -75 102 -263 185 -350 28 -30 48 -48 43 -40 -4 8 6 2
22 -15 34 -33 172 -105 202 -105 10 0 24 -6 30 -12 15 -15 166 -18 197 -4 11
5 29 11 40 12 32 6 142 44 173 60 15 7 30 14 34 14 10 0 166 98 211 134 22 16
54 39 73 52 50 34 258 211 354 300 30 29 70 66 88 83 20 18 31 35 26 42 -5 8
-3 9 5 4 9 -5 52 33 128 111 191 197 516 535 582 604 60 64 61 65 61 35 0 -17
-5 -46 -11 -65 -30 -99 -50 -595 -28 -716 17 -96 77 -237 128 -297 16 -20 6
-37 -20 -37 -11 0 -17 -4 -14 -10 3 -6 -1 -7 -10 -4 -8 3 -35 -3 -60 -15 -25
-12 -47 -21 -50 -21 -30 0 -367 -179 -359 -191 3 -5 -1 -6 -8 -4 -17 7 -120
-69 -110 -80 4 -5 2 -5 -4 -2 -14 8 -115 -71 -194 -151 -105 -106 -149 -172
-205 -309 -14 -33 -16 -64 -13 -155 2 -62 9 -122 15 -133 7 -11 22 -41 34 -66
39 -85 131 -180 274 -287 54 -40 198 -88 295 -99 132 -14 175 -14 278 1 418
62 848 275 1232 612 50 44 222 216 260 260 83 95 111 135 104 145 -4 7 -3 9 4
5 6 -3 26 14 46 41 20 27 39 53 44 58 55 70 133 205 126 217 -4 7 -2 8 4 4 6
-4 22 13 38 41 62 110 74 123 113 123 59 0 312 -69 335 -91 6 -5 17 -9 26 -9
9 0 34 -9 55 -20 22 -11 46 -18 53 -15 8 3 10 0 6 -7 -5 -8 -1 -9 12 -4 10 4
15 4 11 0 -4 -4 19 -22 51 -40 78 -44 141 -113 187 -207 36 -73 39 -85 43
-190 2 -62 9 -118 14 -124 18 -23 71 -15 109 16 50 42 100 148 107 226 14 182
-133 362 -394 480 -43 20 -86 40 -94 44 -8 4 -69 24 -135 45 -66 20 -143 44
-171 52 -29 9 -58 13 -64 9 -9 -6 -11 -4 -6 4 5 8 3 11 -5 10 -23 -4 -89 29
-87 43 2 7 5 15 8 18 13 13 30 63 24 72 -4 6 -3 8 3 5 32 -20 110 260 132 477
41 407 -41 706 -216 782 -50 22 -134 26 -193 8 -136 -40 -230 -106 -230 -161
0 -12 13 -35 29 -52 24 -26 37 -31 74 -31 28 0 53 7 67 18 19 16 30 17 71 9
102 -20 153 -124 152 -312 0 -55 -5 -125 -11 -155 -7 -30 -14 -71 -17 -90 -5
-32 -22 -96 -46 -174 -5 -15 -6 -33 -2 -39 3 -6 1 -7 -5 -3 -8 5 -12 0 -12
-13 0 -24 -79 -192 -115 -245 -14 -21 -22 -42 -19 -48 5 -7 2 -8 -6 -3 -10 6
-12 4 -7 -9 4 -9 3 -15 -2 -12 -5 3 -11 -1 -15 -9 -4 -12 -32 -15 -162 -15
l-157 0 79 78 c110 109 205 215 202 225 -2 5 4 13 14 18 9 5 34 41 57 79 61
107 66 171 17 204 -21 13 -30 14 -53 4 -37 -16 -144 -109 -275 -239 -98 -97
-129 -133 -96 -113 7 4 8 3 4 -4 -4 -6 -13 -9 -20 -6 -17 6 -40 -22 -30 -37 4
-8 3 -9 -4 -5 -7 4 -31 -11 -57 -35 -24 -23 -54 -48 -65 -56 -11 -8 -18 -19
-14 -24 3 -5 0 -8 -7 -7 -7 2 -13 -2 -14 -9 0 -6 -4 -15 -9 -20 -5 -5 -6 -3
-2 5 4 6 3 12 -2 12 -15 0 -33 -26 -24 -35 4 -5 2 -5 -5 -2 -6 4 -35 -9 -64
-28 -39 -25 -65 -35 -94 -35 -22 0 -80 -9 -130 -19 -158 -33 -197 -35 -247
-13 -84 37 -151 125 -185 245 -18 63 -26 410 -12 537 16 150 59 323 112 449 6
14 11 28 12 31 0 3 26 58 57 123 32 64 57 120 57 123 0 3 6 11 15 17 8 7 28
36 43 66 31 60 31 60 93 156 25 38 50 77 55 87 6 9 28 43 49 75 22 32 95 141
162 243 68 102 177 264 243 360 136 199 326 492 325 500 0 3 5 11 12 17 14 14
145 225 194 313 54 98 98 194 105 232 9 48 -22 105 -78 141 -45 30 -77 33
-122 13z m-3047 -831 c-3 -3 -9 2 -12 12 -6 14 -5 15 5 6 7 -7 10 -15 7 -18z
m559 -2500 c0 -8 -4 -12 -9 -9 -5 3 -6 10 -3 15 9 13 12 11 12 -6z m2349 -548
c4 -3 -3 -19 -15 -35 -11 -16 -18 -32 -16 -36 3 -3 2 -4 -2 -1 -9 7 -43 -25
-43 -42 0 -7 -4 -13 -8 -13 -5 0 -38 -39 -75 -87 -36 -49 -106 -128 -156 -177
-49 -50 -87 -94 -85 -98 3 -5 1 -7 -4 -6 -16 5 -91 -56 -89 -72 1 -8 -4 -14
-11 -12 -7 1 -43 -22 -80 -52 -37 -30 -111 -83 -164 -119 -53 -35 -94 -68 -90
-72 4 -5 1 -5 -6 -1 -8 5 -21 1 -30 -7 -9 -9 -20 -16 -25 -16 -14 -1 -72 -34
-79 -45 -4 -6 -8 -8 -8 -3 0 4 -15 0 -32 -10 -18 -9 -35 -18 -38 -18 -23 -4
-80 -31 -80 -38 0 -4 -4 -6 -9 -3 -5 3 -35 -3 -67 -14 -67 -22 -142 -41 -164
-42 -8 0 -48 -7 -88 -14 -89 -17 -166 -18 -247 -3 -33 6 -67 12 -75 13 -8 1
-41 10 -72 20 -32 9 -59 16 -60 15 -2 -1 -26 14 -54 33 -137 90 -145 168 -31
316 41 52 134 144 141 139 1 -1 9 5 18 13 33 31 77 62 178 126 108 68 323 174
352 174 8 0 18 4 23 9 6 4 32 14 59 20 48 12 102 3 132 -20 6 -5 51 -16 99
-25 81 -15 93 -15 178 1 108 20 232 76 352 159 l80 54 193 -3 c106 -1 195 -5
198 -8z m-16 -93 c0 -8 -19 -13 -24 -6 -3 5 1 9 9 9 8 0 15 -2 15 -3z m-1175
-1322 c-3 -3 -11 0 -18 7 -9 10 -8 11 6 5 10 -3 15 -9 12 -12z"/>
<path d="M7216 10683 c-34 -9 -130 -64 -148 -85 -10 -11 -18 -17 -18 -14 0 12
-99 -99 -118 -132 -7 -13 -10 -28 -6 -35 4 -7 4 -9 -1 -5 -4 4 -19 -16 -32
-45 -20 -41 -25 -69 -25 -133 -1 -71 3 -86 27 -128 15 -26 45 -59 67 -72 42
-27 124 -42 155 -29 10 4 26 9 36 10 27 3 76 55 104 110 14 28 44 77 65 109
84 126 108 204 94 299 -8 54 -64 114 -133 143 -34 15 -36 15 -67 7z"/>
<path d="M8557 10026 c-21 -8 -46 -21 -56 -30 -10 -9 -20 -14 -23 -11 -3 3
-20 -8 -37 -24 -18 -17 -34 -30 -37 -30 -7 1 -137 -125 -174 -167 -72 -82
-102 -125 -97 -138 4 -10 1 -13 -7 -10 -18 7 -152 -194 -141 -210 3 -3 2 -4
-2 -1 -10 8 -94 -164 -87 -178 4 -7 3 -8 -1 -4 -11 10 -48 -81 -39 -95 4 -6 2
-8 -4 -4 -13 8 -46 -89 -36 -106 4 -7 3 -9 -1 -5 -13 11 -42 -101 -56 -213
-11 -89 -7 -149 14 -235 10 -40 60 -145 69 -145 4 0 13 -11 18 -24 5 -13 34
-41 65 -61 101 -68 216 -60 388 26 76 38 227 145 227 161 0 4 7 8 15 8 8 0 15
5 15 11 0 5 -5 7 -12 3 -7 -4 -8 -3 -4 5 4 6 12 9 17 6 9 -6 79 45 79 58 0 5
-6 5 -12 1 -8 -4 -9 -3 -5 2 5 5 15 9 22 9 18 0 166 145 159 156 -3 5 2 6 10
3 8 -3 19 3 26 15 21 41 30 21 30 -68 0 -52 4 -93 10 -96 6 -4 8 -15 5 -24 -9
-29 30 -107 81 -161 48 -52 127 -90 184 -90 77 0 207 86 363 241 91 90 97 99
97 137 0 55 -22 76 -69 67 -42 -8 -76 -30 -154 -102 -67 -62 -148 -103 -201
-103 -127 0 -115 186 31 488 82 170 216 379 294 458 13 13 18 27 14 35 -6 8
-4 10 4 5 14 -9 25 3 77 81 40 61 48 106 27 148 -28 54 -53 75 -94 75 -40 0
-69 -19 -144 -95 -63 -63 -77 -86 -62 -104 10 -14 10 -14 -4 -3 -15 11 -21 6
-48 -34 -17 -26 -28 -52 -24 -58 3 -6 3 -8 -1 -4 -4 3 -28 -19 -54 -50 -25
-31 -50 -60 -55 -63 -5 -4 -6 -12 -2 -19 5 -8 4 -11 -3 -6 -6 3 -28 -12 -49
-35 -64 -69 -89 -94 -109 -105 -10 -6 -25 -22 -31 -35 -7 -13 -13 -20 -13 -15
0 5 -9 1 -20 -9 -11 -10 -17 -22 -14 -27 3 -4 0 -7 -8 -6 -7 2 -12 -4 -10 -12
2 -8 0 -12 -4 -7 -4 4 -16 0 -26 -9 -15 -14 -16 -20 -5 -33 10 -14 10 -14 -4
-4 -13 10 -26 3 -80 -49 -35 -34 -63 -66 -62 -70 2 -4 -1 -7 -5 -5 -5 1 -26
-12 -48 -29 -134 -107 -159 -129 -162 -136 -2 -4 -8 -8 -13 -8 -17 0 -98 -68
-91 -76 4 -5 3 -6 -2 -2 -5 4 -32 -5 -60 -21 -28 -16 -62 -32 -75 -36 l-24 -7
8 73 c4 41 8 87 8 102 0 20 2 24 8 15 6 -9 9 -6 9 10 0 51 90 269 143 347 15
21 24 42 21 47 -3 4 -1 8 4 8 5 0 31 33 58 73 27 39 54 77 60 82 5 6 26 30 46
55 20 25 72 81 116 124 45 44 78 84 75 89 -3 6 -2 7 3 4 6 -3 16 -2 23 2 11 7
10 19 -4 67 -24 85 -68 160 -86 148 -5 -3 -6 1 -3 9 7 18 -60 61 -82 53 -8 -3
-12 -2 -9 4 9 14 -33 12 -78 -4z m-170 -140 c0 -8 -6 -12 -15 -8 -11 4 -13 1
-7 -8 6 -9 4 -11 -5 -5 -10 6 -9 11 5 22 23 16 22 16 22 -1z m-82 -93 c-2 -10
-4 -19 -4 -21 -1 -2 -6 0 -11 3 -8 5 -7 11 1 21 15 18 18 18 14 -3z m-411
-629 c3 -8 2 -12 -4 -9 -6 3 -10 10 -10 16 0 14 7 11 14 -7z m451 -442 c-3 -3
-11 0 -18 7 -9 10 -8 11 6 5 10 -3 15 -9 12 -12z"/>
</g>
</svg>
